<svg xmlns="http://www.w3.org/2000/svg" version="1.0" viewBox="0 0 74 74" id="help-center"><path d="M29.78 59.86c1.68 0 3.04-1.37 3.04-3.04s-1.37-3.04-3.04-3.04c-1.68 0-3.04 1.37-3.04 3.04s1.36 3.04 3.04 3.04zm0-5.08c1.13 0 2.04.92 2.04 2.04 0 1.13-.92 2.04-2.04 2.04-1.13 0-2.04-.92-2.04-2.04a2.03 2.03 0 0 1 2.04-2.04zm-8.14-15.57 7.47 2.52a.47.47 0 0 0 .51-.12c.13-.13.18-.33.12-.51l-2.43-7.22c.92-1.74 1.41-3.69 1.41-5.67 0-6.68-5.44-12.11-12.12-12.11-6.67 0-12.1 5.43-12.1 12.11 0 6.67 5.43 12.1 12.1 12.1 1.75 0 3.44-.37 5.04-1.1zm-16.14-11c0-6.13 4.98-11.11 11.1-11.11 6.13 0 11.12 4.98 11.12 11.11 0 1.88-.48 3.74-1.39 5.38-.07.12-.08.27-.04.4l2.18 6.47-6.71-2.26a.453.453 0 0 0-.37.02 11.11 11.11 0 0 1-4.8 1.08c-6.11.01-11.09-4.97-11.09-11.09z"></path><path d="M24.08 32.43v-.73c0-.14-.03-.27-.08-.39.29-.29.46-.69.46-1.12 0-.43-.17-.82-.44-1.11.27-.29.44-.67.44-1.1 0-.46-.2-.88-.51-1.17.08-.16.13-.32.11-.5a6.43 6.43 0 0 0-6.45-5.91h-1.49c-1.74 0-3.36.67-4.58 1.9a6.454 6.454 0 0 0-1.87 4.01c-.02.18.03.34.11.5-.31.29-.51.71-.51 1.17 0 .43.17.81.45 1.1-.28.29-.45.68-.45 1.11 0 .52.26 1 .68 1.29-.02.07-.04.14-.04.21v.72a2.48 2.48 0 0 0 2.48 2.48h9.23c1.34.01 2.46-1.1 2.46-2.46zm-13.19-1.72c-.08 0-.16.03-.24.05a.607.607 0 0 1-.39-.56c0-.34.27-.61.61-.61h11.98c.33 0 .6.27.6.61 0 .22-.11.41-.3.52l-.01.01c-.02 0-.04-.01-.06-.01H10.89zm-.63-2.72c0-.34.27-.61.61-.61h11.98c.33 0 .6.27.6.61 0 .34-.26.6-.6.6H10.87c-.34 0-.61-.27-.61-.6zm1.98-4.98c1.02-1.03 2.4-1.6 3.87-1.6h1.49c2.86 0 5.21 2.15 5.45 4.97-.02 0-.04.01-.06.01-.05 0-.09-.01-.14-.01H10.87c-.07 0-.14.01-.21.02.11-1.28.67-2.48 1.58-3.39zm-1.35 9.42-.01-.72h12.19v.72c0 .81-.66 1.48-1.48 1.48h-9.23c-.8-.01-1.47-.67-1.47-1.48z"></path><path d="M69.5 52.09c0-3.07-2.09-5.67-5.08-6.34l-.64-.14V20.39c0-8.76-7.13-15.89-15.89-15.89S32 11.63 32 20.39v4.59c-.03.17-.05.35-.05.53v3.5c0 .18.03.36.05.53V44.3H11.45a2.634 2.634 0 0 0-2.61 2.98l2.69 19.95a2.62 2.62 0 0 0 2.6 2.27H66.6c1.6 0 2.9-1.3 2.9-2.9V52.09zm-1 0v4.74l-4.76 2.04c-1.07.46-1.76 1.5-1.76 2.67v6.96h-14.6c.28-.36.48-.79.54-1.27l2.23-16.53c2.07-1.41 4.64-3.56 5.99-6.15.53.35 1.13.62 1.79.77l6.28 1.41c2.52.56 4.29 2.76 4.29 5.36zm-18.52-6.9c-.5-.57-1.22-.9-1.98-.9h-8.05c1.25-.98 2.04-2.48 2.04-4.15v-.01c1.58 1.42 3.52 2.36 5.93 2.36 2.37 0 4.3-.93 5.86-2.33.01 1.45.6 2.76 1.56 3.72-1.11 2.26-3.33 4.21-5.02 5.45l.28-2.07c.11-.74-.12-1.49-.62-2.07zM32.99 25.02a2.38 2.38 0 0 1 2.32-1.88h.81v8.24h-.81a2.38 2.38 0 0 1-2.32-1.88v-4.48zm2.32-2.88c-.19 0-.36.03-.54.05v-.77c0-7.21 5.87-13.08 13.09-13.08 7.21 0 13.08 5.87 13.08 13.08v.77c-.18-.03-.35-.05-.54-.05h-1.3c-.28 0-.5.22-.5.5v.29c-2.9-1.47-4.94-3.55-6.04-6.22a.52.52 0 0 0-.36-.3.5.5 0 0 0-.45.13c-3.68 3.46-8.61 5.61-14.63 6.4v-.29c0-.28-.22-.5-.5-.5h-1.31zm27.47 6.87c0 1.07-.71 1.96-1.69 2.26v-.84c0-.28-.22-.5-.5-.5s-.5.22-.5.5v.96h-.49v-8.24h.81c1.31 0 2.37 1.06 2.37 2.37v3.49zm-4.15 3.01c.06.2.25.36.47.36h.99v.42c0 1.11-.72 2.07-1.78 2.39l-1.14.34c.59-1.17 1.07-2.38 1.46-3.51zm-21.51-8.07c6.02-.77 10.99-2.85 14.79-6.21 1.31 2.73 3.56 4.85 6.68 6.32v4.39c-.43 1.87-1.28 4.85-2.78 7.5l-5.04 1.51c-.55-.63-1.49-1.04-2.55-1.04-1.69 0-3.06 1.04-3.06 2.33s1.37 2.33 3.06 2.33 3.06-1.04 3.06-2.33c0-.13-.02-.26-.05-.38l3.78-1.13c-1.66 2.4-3.95 4.27-7.09 4.27-7.3 0-10.1-10.23-10.8-13.45v-4.11zm13.16 14.79c0 .72-.95 1.33-2.06 1.33-1.12 0-2.06-.61-2.06-1.33s.95-1.33 2.06-1.33c1.12 0 2.06.61 2.06 1.33zm7.86 5.6a4.27 4.27 0 0 1-3.36-4.19v-.99c.64-.73 1.2-1.53 1.7-2.37l2.11-.63c1.49-.45 2.49-1.8 2.49-3.35v-.5c.65-.13 1.23-.46 1.69-.91v13.98l-4.63-1.04zM47.89 5.5c8.21 0 14.89 6.68 14.89 14.89v2.73c-.24-.24-.53-.43-.84-.59v-1.1c0-7.76-6.32-14.08-14.08-14.08-7.77 0-14.09 6.32-14.09 14.08v1.11c-.28.15-.55.33-.78.54V20.4c0-8.22 6.68-14.9 14.9-14.9zm-14.9 25.95c.6.58 1.42.93 2.32.93h1.31c.28 0 .5-.22.5-.5v-.04c.8 2.42 2.03 5.18 3.87 7.28v1.03c0 1.96-1.32 3.66-3.22 4.15H33V31.45zM12.52 67.09 9.84 47.14c-.06-.46.08-.93.39-1.29s.75-.56 1.22-.56H48c.47 0 .91.2 1.22.56.31.35.45.82.39 1.29l-2.69 19.95c-.11.79-.79 1.39-1.59 1.4h-31.2c-.81.01-1.5-.6-1.61-1.4zM66.6 68.5h-3.61v-6.96c0-.76.45-1.45 1.15-1.75l4.36-1.87v8.68c0 1.04-.85 1.9-1.9 1.9z"></path></svg>