<svg xmlns="http://www.w3.org/2000/svg" width="24" height="24" id="help"><path fill="none" d="M0 0h24v24H0Z" data-name="Path 3671"></path><path fill="#525863" d="M5.212 18.788a9.6 9.6 0 1 1 6.79 2.813 9.6 9.6 0 0 1-6.79-2.813Zm1.273-12.3a7.807 7.807 0 1 0 5.517-2.28 7.806 7.806 0 0 0-5.515 2.276Zm4.335 10.857a1.035 1.035 0 0 1-.338-.819 1.075 1.075 0 0 1 .326-.791 1.108 1.108 0 0 1 .8-.317 1.084 1.084 0 0 1 1.106 1.108 1.03 1.03 0 0 1-.334.815 1.125 1.125 0 0 1-.772.3 1.168 1.168 0 0 1-.787-.299Zm.059-2.86a.994.994 0 0 1-.263-.754 2.626 2.626 0 0 1 .706-1.885 11.245 11.245 0 0 1 .862-.823c.317-.278.545-.486.686-.627a2.189 2.189 0 0 0 .356-.475 1.124 1.124 0 0 0 .145-.563 1.308 1.308 0 0 0-.442-1.008 1.615 1.615 0 0 0-1.141-.408 1.576 1.576 0 0 0-1.2.412 3.347 3.347 0 0 0-.654 1.219c-.169.561-.486.838-.957.838a.939.939 0 0 1-.7-.293.891.891 0 0 1-.286-.635 2.678 2.678 0 0 1 .455-1.435 3.484 3.484 0 0 1 1.32-1.2 4.152 4.152 0 0 1 2.026-.478 4.331 4.331 0 0 1 1.9.4 3.088 3.088 0 0 1 1.274 1.082 2.669 2.669 0 0 1 .447 1.489 2.278 2.278 0 0 1-.256 1.109 3.343 3.343 0 0 1-.61.823c-.231.231-.655.615-1.267 1.164a5.559 5.559 0 0 0-.4.4 1.738 1.738 0 0 0-.228.321 1.98 1.98 0 0 0-.113.291c-.028.1-.066.266-.122.51a.833.833 0 0 1-.886.775.909.909 0 0 1-.652-.253Z" data-name="Path 2675"></path></svg>