<svg xmlns="http://www.w3.org/2000/svg" width="24" height="24" fill="none" viewBox="0 0 24 24" id="loved-post"><path fill="#000" fill-rule="evenodd" d="M4.51113 1.75744C3.26415 1.75128 2.25 2.76043 2.25 4.00742V15.5593C2.25 16.802 3.25736 17.8093 4.5 17.8093H8.18934L11.4697 21.0897C11.7626 21.3825 12.2374 21.3825 12.5303 21.0897L15.8107 17.8093H19.5C20.7426 17.8093 21.75 16.802 21.75 15.5593V4.0553C21.75 2.81503 20.7463 1.80865 19.5061 1.8053L10.002 1.77966C9.58781 1.77854 9.25112 2.11342 9.25 2.52763C9.24889 2.94185 9.58376 3.27854 9.99798 3.27966L19.502 3.3053C19.9154 3.30641 20.25 3.64187 20.25 4.0553V15.5593C20.25 15.9736 19.9142 16.3093 19.5 16.3093H15.5C15.3011 16.3093 15.1103 16.3884 14.9697 16.529L12 19.4987L9.03033 16.529C8.88968 16.3884 8.69891 16.3093 8.5 16.3093H4.5C4.08579 16.3093 3.75 15.9736 3.75 15.5593V4.00742C3.75 3.59175 4.08805 3.25537 4.50371 3.25743L5.99629 3.26481C6.4105 3.26686 6.74794 2.93274 6.74999 2.51853C6.75204 2.10432 6.41792 1.76688 6.00371 1.76483L4.51113 1.75744Z" clip-rule="evenodd"></path><path fill="#000" fill-rule="evenodd" d="M12.1213 5.40686C10.6607 4.40269 8.64684 4.54986 7.34835 5.84835C5.88388 7.31282 5.88388 9.68718 7.34835 11.1517L11.591 15.3943C11.7316 15.5349 11.9224 15.614 12.1213 15.614C12.3202 15.614 12.511 15.5349 12.6517 15.3943L16.8943 11.1517C18.3588 9.68718 18.3588 7.31282 16.8943 5.84835C15.5958 4.54986 13.582 4.40269 12.1213 5.40686ZM11.591 6.90901C10.7123 6.03033 9.28769 6.03033 8.40901 6.90901C7.53033 7.78769 7.53033 9.21231 8.40901 10.091L12.1213 13.8033L15.8336 10.091C16.7123 9.21231 16.7123 7.78769 15.8336 6.90901C14.955 6.03033 13.5303 6.03033 12.6517 6.90901C12.3588 7.2019 11.8839 7.2019 11.591 6.90901Z" clip-rule="evenodd"></path></svg>